<?xml version="1.0" encoding="UTF-8" standalone="no"?>
<!-- Created with Inkscape (http://www.inkscape.org/) -->

<svg
   version="1.0"
   id="svg2"
   sodipodi:version="0.32"
   inkscape:version="1.3.2 (091e20ef0f, 2023-11-25)"
   sodipodi:docname="pyjisa.svg"
   width="246.08904pt"
   height="246.28015pt"
   inkscape:export-filename="python-logo-only.png"
   inkscape:export-xdpi="232.44"
   inkscape:export-ydpi="232.44"
   xml:space="preserve"
   xmlns:inkscape="http://www.inkscape.org/namespaces/inkscape"
   xmlns:sodipodi="http://sodipodi.sourceforge.net/DTD/sodipodi-0.dtd"
   xmlns:xlink="http://www.w3.org/1999/xlink"
   xmlns="http://www.w3.org/2000/svg"
   xmlns:svg="http://www.w3.org/2000/svg"
   xmlns:rdf="http://www.w3.org/1999/02/22-rdf-syntax-ns#"
   xmlns:cc="http://creativecommons.org/ns#"
   xmlns:dc="http://purl.org/dc/elements/1.1/"><metadata
     id="metadata371"><rdf:RDF><cc:Work
         rdf:about=""><dc:format>image/svg+xml</dc:format><dc:type
           rdf:resource="http://purl.org/dc/dcmitype/StillImage" /></cc:Work></rdf:RDF></metadata><sodipodi:namedview
     inkscape:window-height="1520"
     inkscape:window-width="2560"
     inkscape:pageshadow="2"
     inkscape:pageopacity="0.0"
     guidetolerance="10.0"
     gridtolerance="10.0"
     objecttolerance="10.0"
     borderopacity="1.0"
     bordercolor="#666666"
     pagecolor="#ffffff"
     id="base"
     inkscape:zoom="2.1461642"
     inkscape:cx="79.910009"
     inkscape:cy="235.76947"
     inkscape:window-x="0"
     inkscape:window-y="0"
     inkscape:current-layer="svg2"
     width="210mm"
     height="40mm"
     units="mm"
     inkscape:showpageshadow="2"
     inkscape:pagecheckerboard="0"
     inkscape:deskcolor="#d1d1d1"
     inkscape:document-units="pt"
     showgrid="false"
     inkscape:window-maximized="1"
     showguides="false" /><defs
     id="defs4"><linearGradient
       id="linearGradient2"><stop
         style="stop-color:#5a9fd4;stop-opacity:1;"
         offset="0"
         id="stop1" /><stop
         style="stop-color:#306998;stop-opacity:1;"
         offset="1"
         id="stop2" /></linearGradient><linearGradient
       id="linearGradient2795"><stop
         style="stop-color:#b8b8b8;stop-opacity:0.49803922;"
         offset="0"
         id="stop2797" /><stop
         style="stop-color:#7f7f7f;stop-opacity:0;"
         offset="1"
         id="stop2799" /></linearGradient><linearGradient
       id="linearGradient2787"><stop
         style="stop-color:#7f7f7f;stop-opacity:0.5;"
         offset="0"
         id="stop2789" /><stop
         style="stop-color:#7f7f7f;stop-opacity:0;"
         offset="1"
         id="stop2791" /></linearGradient><linearGradient
       id="linearGradient3676"><stop
         style="stop-color:#b2b2b2;stop-opacity:0.5;"
         offset="0"
         id="stop3678" /><stop
         style="stop-color:#b3b3b3;stop-opacity:0;"
         offset="1"
         id="stop3680" /></linearGradient><linearGradient
       id="linearGradient3236"><stop
         style="stop-color:#f4f4f4;stop-opacity:1"
         offset="0"
         id="stop3244" /><stop
         style="stop-color:white;stop-opacity:1"
         offset="1"
         id="stop3240" /></linearGradient><linearGradient
       id="linearGradient4671"><stop
         style="stop-color:#ffd43b;stop-opacity:1;"
         offset="0"
         id="stop4673" /><stop
         style="stop-color:#ffe873;stop-opacity:1"
         offset="1"
         id="stop4675" /></linearGradient><linearGradient
       id="linearGradient4689"><stop
         style="stop-color:#5a9fd4;stop-opacity:1;"
         offset="0"
         id="stop4691" /><stop
         style="stop-color:#306998;stop-opacity:1;"
         offset="1"
         id="stop4693" /></linearGradient><linearGradient
       x1="224.23996"
       y1="144.75717"
       x2="-65.308502"
       y2="144.75717"
       id="linearGradient2987"
       xlink:href="#linearGradient4671"
       gradientUnits="userSpaceOnUse"
       gradientTransform="translate(100.2702,99.61116)" /><linearGradient
       x1="172.94208"
       y1="77.475983"
       x2="26.670298"
       y2="76.313133"
       id="linearGradient2990"
       xlink:href="#linearGradient4689"
       gradientUnits="userSpaceOnUse"
       gradientTransform="translate(100.2702,99.61116)" /><linearGradient
       inkscape:collect="always"
       xlink:href="#linearGradient4689"
       id="linearGradient2587"
       gradientUnits="userSpaceOnUse"
       gradientTransform="translate(100.2702,99.61116)"
       x1="172.94208"
       y1="77.475983"
       x2="26.670298"
       y2="76.313133" /><linearGradient
       inkscape:collect="always"
       xlink:href="#linearGradient4671"
       id="linearGradient2589"
       gradientUnits="userSpaceOnUse"
       gradientTransform="translate(100.2702,99.61116)"
       x1="224.23996"
       y1="144.75717"
       x2="-65.308502"
       y2="144.75717" /><linearGradient
       inkscape:collect="always"
       xlink:href="#linearGradient4689"
       id="linearGradient2248"
       gradientUnits="userSpaceOnUse"
       gradientTransform="translate(100.2702,99.61116)"
       x1="172.94208"
       y1="77.475983"
       x2="26.670298"
       y2="76.313133" /><linearGradient
       inkscape:collect="always"
       xlink:href="#linearGradient4671"
       id="linearGradient2250"
       gradientUnits="userSpaceOnUse"
       gradientTransform="translate(100.2702,99.61116)"
       x1="224.23996"
       y1="144.75717"
       x2="-65.308502"
       y2="144.75717" /><linearGradient
       inkscape:collect="always"
       xlink:href="#linearGradient4671"
       id="linearGradient2255"
       gradientUnits="userSpaceOnUse"
       gradientTransform="matrix(0.562541,0,0,0.567972,-11.5974,-7.60954)"
       x1="224.23996"
       y1="144.75717"
       x2="-65.308502"
       y2="144.75717" /><linearGradient
       inkscape:collect="always"
       xlink:href="#linearGradient4689"
       id="linearGradient2258"
       gradientUnits="userSpaceOnUse"
       gradientTransform="matrix(0.562541,0,0,0.567972,-11.5974,-7.60954)"
       x1="172.94208"
       y1="76.176224"
       x2="26.670298"
       y2="76.313133" /><radialGradient
       inkscape:collect="always"
       xlink:href="#linearGradient2795"
       id="radialGradient2801"
       cx="61.518883"
       cy="132.28575"
       fx="61.518883"
       fy="132.28575"
       r="29.036913"
       gradientTransform="matrix(1,0,0,0.177966,0,108.7434)"
       gradientUnits="userSpaceOnUse" /><linearGradient
       inkscape:collect="always"
       xlink:href="#linearGradient16"
       id="linearGradient1475"
       gradientUnits="userSpaceOnUse"
       gradientTransform="matrix(0.562541,0,0,0.567972,110.16226,163.67395)"
       x1="224.25473"
       y1="20.603781"
       x2="26.648937"
       y2="218.48149" /><linearGradient
       inkscape:collect="always"
       xlink:href="#linearGradient16"
       id="linearGradient1478"
       gradientUnits="userSpaceOnUse"
       gradientTransform="matrix(0.562541,0,0,0.567972,109.8128,163.26625)"
       x1="224.25473"
       y1="20.603781"
       x2="26.648937"
       y2="218.48149" /><linearGradient
       id="linearGradient16"><stop
         style="stop-color:#800080;stop-opacity:1;"
         offset="0"
         id="stop16" /><stop
         style="stop-color:#00b290;stop-opacity:1;"
         offset="1"
         id="stop17" /></linearGradient><linearGradient
       xlink:href="#linearGradient16"
       id="linearGradient3"
       x1="106.35109"
       y1="59.646004"
       x2="55.476608"
       y2="110.52048"
       gradientUnits="userSpaceOnUse"
       gradientTransform="matrix(3.7795276,0,0,3.7795276,-141.75677,-217.29839)" /><linearGradient
       xlink:href="#linearGradient16"
       id="linearGradient17"
       x1="106.35114"
       y1="114.93522"
       x2="55.476562"
       y2="131.38715"
       gradientUnits="userSpaceOnUse"
       gradientTransform="matrix(3.7795276,0,0,3.7795276,-25.898073,-96.32796)" /><linearGradient
       inkscape:collect="always"
       xlink:href="#linearGradient16"
       id="linearGradient4"
       gradientUnits="userSpaceOnUse"
       x1="106.35109"
       y1="59.646004"
       x2="55.476608"
       y2="110.52048"
       gradientTransform="matrix(3.7795276,0,0,3.7795276,-141.75677,-219.29839)" /></defs><circle
     style="fill:#ffffff;fill-opacity:1;stroke:#ffffff;stroke-width:16.2703;stroke-dasharray:none;stroke-opacity:1"
     id="circle12"
     cx="164.05936"
     cy="104.27608"
     r="96.140938" /><circle
     style="fill:none;stroke:url(#linearGradient4);stroke-width:15.0009;stroke-dasharray:none;stroke-opacity:1"
     id="path1"
     cx="164.05936"
     cy="102.27608"
     r="88.640274" /><path
     style="font-weight:bold;font-size:45.9959px;font-family:Monospace;-inkscape-font-specification:'Monospace Bold';fill:url(#linearGradient3);fill-opacity:1;stroke-width:40.7471"
     d="m 125.90394,160.12989 v -29.03038 q 7.30004,7.46981 15.5338,11.37448 8.31865,3.90467 16.72218,3.90467 9.84657,0 14.43031,-4.92328 4.58375,-4.92329 4.58375,-15.70358 V 61.749148 H 146.53079 V 39.679266 H 202.2148 V 125.7518 q 0,23.17338 -9.76167,33.18971 -9.6768,9.93144 -32.00134,9.93144 -8.06399,0 -16.89194,-2.20698 -8.74307,-2.20698 -17.65591,-6.53608 z"
     id="text1"
     aria-label="J" /><g
     id="g7"
     transform="translate(-51.690162,-100.92413)"><path
       style="font-weight:bold;font-size:21.7518px;font-family:Monospace;-inkscape-font-specification:'Monospace Bold';fill:url(#linearGradient17);stroke:#ffffff;stroke-width:7.5;stroke-linecap:butt;stroke-linejoin:round;stroke-dasharray:none;stroke-opacity:1;paint-order:stroke markers fill"
       d="m 183.77713,396.11871 v -13.72868 q 3.45224,3.53253 7.34605,5.37906 3.93395,1.84656 7.90804,1.84656 4.65651,0 6.8242,-2.32826 2.16769,-2.32826 2.16769,-7.42636 v -30.26732 h -14.49139 v -10.43702 h 26.33338 v 40.70434 q 0,10.9589 -4.61637,15.69566 -4.57623,4.69667 -15.13367,4.69667 -3.81352,0 -7.98833,-1.04368 -4.13465,-1.04371 -8.3496,-3.09097 z m 52.02448,-46.525 v -10.43702 h 35.68655 v 10.43702 h -11.92228 v 39.05851 h 11.92228 v 10.43701 h -35.68655 v -10.43701 h 11.92228 v -39.05851 z m 63.06363,23.20229 q -8.95174,-3.41212 -12.12299,-7.14535 -3.17124,-3.77336 -3.17124,-10.11586 0,-8.14889 5.2185,-12.80542 5.21851,-4.65649 14.33082,-4.65649 4.13466,0 8.26933,0.9634 4.13466,0.92326 8.18903,2.76982 v 11.56101 q -3.81352,-2.68955 -7.74747,-4.09451 -3.93395,-1.405 -7.78761,-1.405 -4.29524,0 -6.58335,1.72611 -2.28811,1.72615 -2.28811,4.93753 0,2.48882 1.64583,4.13466 1.68598,1.60569 6.98477,3.57267 l 5.09808,1.92684 q 7.22563,2.64938 10.63772,7.0249 3.4121,4.37552 3.4121,11.03913 0,9.07219 -5.37907,13.56812 -5.33893,4.4558 -16.17737,4.4558 -4.4558,0 -8.95174,-1.08385 -4.4558,-1.04368 -8.63061,-3.13108 v -12.24344 q 4.7368,3.37198 9.15246,5.01782 4.4558,1.64583 8.79117,1.64583 4.37552,0 6.78406,-1.96698 2.40854,-2.00712 2.40854,-5.57979 0,-2.68955 -1.60569,-4.69667 -1.6057,-2.04726 -4.65651,-3.21139 z m 53.75063,-22.80087 -5.5798,24.52698 h 11.19973 z m -7.22564,-10.83844 h 14.4914 l 16.17736,59.93254 h -11.84201 l -3.69309,-14.81254 h -15.85622 l -3.61281,14.81254 h -11.84199 z"
       id="text9"
       aria-label="JISA" /><g
       id="g6"
       transform="translate(-69.407115,137.80996)"><path
         style="fill:url(#linearGradient1478);fill-opacity:1;stroke:#ffffff;stroke-width:7.5;stroke-dasharray:none;stroke-opacity:1;paint-order:stroke markers fill"
         d="m 179.72271,174.96954 c -4.58366,0.0213 -8.96094,0.41222 -12.8125,1.09375 -11.34622,2.0045 -13.40625,6.2001 -13.40625,13.9375 v 10.21875 h 26.8125 v 3.40625 h -26.8125 -10.0625 c -7.79246,0 -14.61576,4.68372 -16.75,13.59375 -2.46182,10.21296 -2.57102,16.58602 0,27.25 1.90592,7.93785 6.45754,13.59375 14.25,13.59375 h 9.21875 v -12.25 c 0,-8.8499 7.65714,-16.65625 16.75,-16.65625 h 26.78125 c 7.45495,0 13.40625,-6.13817 13.40625,-13.625 v -25.53125 c 0,-7.26634 -6.12999,-12.72478 -13.40625,-13.9375 -4.60599,-0.76673 -9.3851,-1.11505 -13.96875,-1.09375 z m -14.5,8.21875 c 2.76954,0 5.03125,2.29864 5.03125,5.125 -1e-5,2.81633 -2.26171,5.09375 -5.03125,5.09375 -2.77948,0 -5.03125,-2.27742 -5.03125,-5.09375 -1e-5,-2.82635 2.25177,-5.125 5.03125,-5.125 z"
         id="path1948" /><path
         style="fill:url(#linearGradient1475);fill-opacity:1;stroke:#ffffff;stroke-width:7.5;stroke-dasharray:none;stroke-opacity:1;paint-order:stroke markers fill"
         d="m 210.79092,204.03349 v 11.90625 c 0,9.23075 -7.8259,17 -16.75,17 h -26.78125 c -7.33584,0 -13.40625,6.27848 -13.40625,13.625 v 25.53125 c 0,7.26634 6.31858,11.54032 13.40625,13.625 8.48733,2.49561 16.62623,2.94663 26.78125,0 6.75015,-1.95439 13.40625,-5.88761 13.40625,-13.625 v -10.21875 h -26.78125 v -3.40625 h 26.78125 13.40625 c 7.79246,0 10.69625,-5.43541 13.40624,-13.59375 2.79933,-8.39889 2.68022,-16.47578 0,-27.25 -1.92578,-7.75744 -5.60387,-13.59375 -13.40624,-13.59375 z m -15.0625,64.65625 c 2.77947,0 5.03125,2.27742 5.03125,5.09375 -1e-5,2.82635 -2.25178,5.125 -5.03125,5.125 -2.76956,0 -5.03125,-2.29865 -5.03125,-5.125 0,-2.81633 2.26169,-5.09375 5.03125,-5.09375 z"
         id="path1950" /></g></g></svg>
